Coordinates
version=1
nRows=16
nColumns=40
inDegrees=yes

Units are S.I. units (second, meters, Newtons, ...)
Angles are in degrees.

endheader
time	pelvis_tilt	pelvis_list	pelvis_rotation	pelvis_tx	pelvis_ty	pelvis_tz	hip_flexion_r	hip_adduction_r	hip_rotation_r	knee_angle_r	knee_angle_r_beta	ankle_angle_r	subtalar_angle_r	mtp_angle_r	hip_flexion_l	hip_adduction_l	hip_rotation_l	knee_angle_l	knee_angle_l_beta	ankle_angle_l	subtalar_angle_l	mtp_angle_l	lumbar_extension	lumbar_bending	lumbar_rotation	arm_flex_r	arm_add_r	arm_rot_r	elbow_flex_r	pro_sup_r	wrist_flex_r	wrist_dev_r	arm_flex_l	arm_add_l	arm_rot_l	elbow_flex_l	pro_sup_l	wrist_flex_l	wrist_dev_l
     23.52250000	     -2.51032054	     -4.12534329	      4.07336296	      1.06556012	      0.93050151	      0.48778922	      9.15355676	      1.72612375	    -15.11938819	     17.57004161	     17.57004161	     11.79245447	     -5.87250977	     -5.73875430	     32.54982594	    -13.33572261	     -1.27550469	     54.51502017	     54.51502017	     10.33114393	    -19.08824019	     15.00154740	    -11.06488042	      6.06947455	      3.74272655	     19.04215155	    -18.71920529	     -1.43944786	     53.63958733	     45.37909255	      0.00000000	      0.00000000	     -0.12149272	    -10.73230756	     -7.64581329	     29.26635361	     46.43618479	      0.00000000	      0.00000000
     23.53585714	     -2.67213168	     -3.80268770	      4.55797691	      1.06437341	      0.93083018	      0.48807830	      8.63369810	      1.53651527	    -15.22784607	     16.86009114	     16.86009114	     11.82516880	     -6.12492128	     -5.62293129	     32.99432685	    -12.68103184	     -1.63500210	     51.31824690	     51.31824690	     10.72668079	    -19.14641425	     15.63176031	    -11.11603243	      5.53278213	      3.34785079	     19.46113351	    -18.43260732	     -1.29054486	     54.61653941	     45.34087914	      0.00000000	      0.00000000	     -0.75016619	    -10.75409206	     -7.61154538	     28.66898741	     46.41983195	      0.00000000	      0.00000000
     23.54921429	     -2.90393306	     -3.75121498	      5.07239037	      1.06298644	      0.93064664	      0.48813470	      8.39575452	      1.54704617	    -15.50296455	     16.50466008	     16.50466008	     11.91597354	     -6.36389617	     -5.62423644	     33.57184661	    -12.11929901	     -1.59564204	     48.13430775	     48.13430775	     11.06800820	    -19.07766803	     16.01153662	    -11.08186153	      5.39865847	      3.24014891	     19.83172134	    -18.42672715	     -1.20673678	     55.31724948	     45.31517085	      0.00000000	      0.00000000	     -1.16772742	    -10.64173041	     -7.59287974	     28.33931498	     46.40920279	      0.00000000	      0.00000000
     23.56257143	     -3.06108458	     -3.63755847	      5.58108338	      1.06166746	      0.93057130	      0.48805309	      8.04041962	      1.50025047	    -15.75085607	     16.10568534	     16.10568534	     12.02667792	     -6.54213006	     -5.68910725	     33.89272022	    -11.35387393	     -1.34881862	     44.77309771	     44.77309771	     11.24012059	    -18.94841699	     16.21652084	    -11.16663756	      5.13643328	      3.03985139	     20.06722428	    -18.24753624	     -0.99907270	     56.36934692	     45.27187141	      0.00000000	      0.00000000	     -1.57031236	    -10.64983121	     -7.60495953	     27.95874442	     46.40345412	      0.00000000	      0.00000000
     23.57592857	     -3.29985560	     -3.63959048	      6.09617974	      1.06027304	      0.93020047	      0.48776869	      7.85779637	      1.52246260	    -16.10579495	     15.84897939	     15.84897939	     12.13524613	     -6.69629207	     -5.78273753	     34.26656841	    -10.59993611	     -0.83403265	     41.45305620	     41.45305620	     11.33748133	    -18.56374705	     16.19207978	    -11.11973291	      4.99001100	      2.97694461	     20.27714368	    -18.27014472	     -0.85309078	     57.22261615	     45.23837251	      0.00000000	      0.00000000	     -1.84155916	    -10.49623561	     -7.61785601	     27.75540479	     46.39953863	      0.00000000	      0.00000000
     23.58928571	     -3.54646938	     -3.58524750	      6.58554670	      1.05890527	      0.92980577	      0.48726435	      7.67603582	      1.46639795	    -16.44972542	     15.59268809	     15.59268809	     12.27008158	     -6.80193544	     -5.87739631	     34.52526731	     -9.74242536	     -0.16384188	     38.19424778	     38.19424778	     11.35068914	    -17.89823056	     16.01963922	    -11.08143285	      4.80482768	      2.92627007	     20.43001785	    -18.24764688	     -0.70645879	     58.02124883	     45.20660458	      0.00000000	      0.00000000	     -2.06263572	    -10.33560758	     -7.63781249	     27.61798720	     46.39754886	      0.00000000	      0.00000000
     23.60264286	     -3.62910429	     -3.54253671	      7.03262375	      1.05774908	      0.92956904	      0.48659434	      7.29405160	      1.41331179	    -16.89236156	     15.33349465	     15.33349465	     12.42529614	     -6.62422200	     -6.13272323	     34.44063794	     -8.92690411	      0.61664026	     34.94711325	     34.94711325	     11.03484378	    -17.03326981	     14.87132755	    -11.25959804	      4.68864750	      2.86396265	     20.38650617	    -18.22218007	     -0.35864226	     59.53659321	     45.14358520	      0.00000000	      0.00000000	     -2.23817263	    -10.24005493	     -7.74569130	     27.49314937	     46.40839138	      0.00000000	      0.00000000
     23.61600000	     -3.82201138	     -3.65925772	      7.46271160	      1.05671706	      0.92893472	      0.48582545	      7.03542938	      1.49689026	    -17.48114719	     15.06424486	     15.06424486	     12.53668708	     -6.28596031	     -6.58995351	     34.44120331	     -8.39037104	      1.22814367	     31.86027044	     31.86027044	      9.87706847	    -15.73704947	     11.14432701	    -11.26829125	      4.73094383	      3.26344018	     19.70209345	    -18.81766479	      0.26630097	     61.95658988	     45.05095463	      0.00000000	      0.00000000	     -2.15416098	     -9.93983899	     -8.09690964	     27.52379310	     46.44997952	      0.00000000	      0.00000000
     23.62935714	     -4.03048763	     -3.67418775	      7.80873089	      1.05580199	      0.92837465	      0.48496955	      6.83991356	      1.49728630	    -17.67132822	     14.90236451	     14.90236451	     12.73581927	     -6.40228166	     -6.62482341	     34.46382663	     -7.77412672	      1.86989932	     29.30271747	     29.30271747	     10.07795176	    -14.07623047	     11.12639222	    -11.19620169	      4.63552335	      3.33773551	     19.85806108	    -18.63060194	      0.31421751	     62.12905747	     45.04678880	      0.00000000	      0.00000000	     -2.20402219	     -9.77176293	     -8.09446037	     27.49422976	     46.44592982	      0.00000000	      0.00000000
     23.64271429	     -4.16588085	     -3.74418567	      8.11742312	      1.05514469	      0.92786594	      0.48406386	      6.52020884	      1.56711119	    -17.93961211	     14.67648407	     14.67648407	     12.92590911	     -6.30975536	     -6.66857050	     34.37736908	     -7.32156516	      2.31641628	     27.08688989	     27.08688989	     10.21338872	    -12.30795749	     11.03490674	    -11.16481859	      4.58639330	      3.39050130	     19.97468968	    -18.39044181	      0.44213450	     62.38659857	     45.03667022	      0.00000000	      0.00000000	     -2.25018961	     -9.59316039	     -8.09664267	     27.50934472	     46.44216073	      0.00000000	      0.00000000
     23.65607143	     -4.19075251	     -3.88062316	      8.37177189	      1.05486698	      0.92735399	      0.48308968	      6.01181601	      1.71984065	    -18.33985219	     14.35538720	     14.35538720	     13.18479377	     -5.88593465	     -6.73380299	     34.18066274	     -7.07088127	      2.43057025	     25.32047138	     25.32047138	     10.29981210	    -10.49739897	     10.59808150	    -11.22493351	      4.64278666	      3.47115484	     20.05823089	    -18.15993148	      0.75166846	     62.75163757	     45.01972807	      0.00000000	      0.00000000	     -2.29849556	     -9.41026057	     -8.13080268	     27.63557540	     46.43933081	      0.00000000	      0.00000000
     23.66942857	     -4.37828623	     -4.09086993	      8.56658381	      1.05471988	      0.92647416	      0.48205570	      5.79961447	      1.91103578	    -18.55367713	     14.24641333	     14.24641333	     13.42861612	     -5.83032304	     -6.79384329	     34.15892867	     -6.84333327	      2.65218592	     23.96524206	     23.96524206	     10.24194434	     -9.45085980	     10.63041691	    -10.99991351	      4.76238052	      3.63446233	     20.04291528	    -17.87783534	      0.94472817	     62.85296495	     45.01068961	      0.00000000	      0.00000000	     -2.25817801	     -9.17835728	     -8.10957253	     27.74523526	     46.43333973	      0.00000000	      0.00000000
     23.68278571	     -4.33262240	     -4.18086857	      8.65253113	      1.05518886	      0.92599130	      0.48099599	      5.08578028	      2.04192368	    -18.89999188	     13.77383395	     13.77383395	     13.73981398	     -5.07210175	     -6.78747391	     33.69298736	     -6.73134744	      2.16102028	     22.80814018	     22.80814018	     10.01059031	     -8.18920999	     10.02191629	    -11.03603480	      4.72611617	      3.76391684	     20.05773314	    -17.62047767	      1.57678997	     63.00633389	     44.99085674	      0.00000000	      0.00000000	     -2.35184684	     -9.04329073	     -8.11652483	     28.02335902	     46.42211279	      0.00000000	      0.00000000
     23.69614286	     -4.47333038	     -4.40677214	      8.67943465	      1.05570184	      0.92491173	      0.47994215	      4.81097243	      2.26071450	    -18.91484665	     13.71240699	     13.71240699	     14.04927862	     -4.99019346	     -6.87557196	     33.57491228	     -6.67272094	      1.94782929	     22.25041823	     22.25041823	      9.72594711	     -7.89849871	     10.10448154	    -10.77578408	      4.83560883	      4.00036779	     19.93660749	    -17.16230438	      1.82460676	     63.00924787	     44.98194932	      0.00000000	      0.00000000	     -2.27667974	     -8.82810051	     -8.08566396	     28.12443781	     46.41644327	      0.00000000	      0.00000000
     23.70950000	     -4.42794293	     -4.51459553	      8.64406237	      1.05676983	      0.92424498	      0.47879827	      4.07322606	      2.41501480	    -19.12884621	     13.25519031	     13.25519031	     14.36890116	     -4.29368070	     -6.77688268	     32.93348115	     -6.66002865	      1.20008699	     21.53664598	     21.53664598	      9.03477211	     -7.46690205	      9.40411584	    -10.70692346	      4.78694803	      4.13142761	     19.89844126	    -16.85564510	      2.52869821	     62.74933184	     44.97201111	      0.00000000	      0.00000000	     -2.34131510	     -8.73088802	     -8.02944240	     28.47485064	     46.39644706	      0.00000000	      0.00000000
     23.72285714	     -4.38347424	     -4.71397710	      8.57102824	      1.05812934	      0.92329688	      0.47757907	      3.40620578	      2.62658810	    -19.37784906	     12.97008980	     12.97008980	     14.86937872	     -3.45314720	     -6.44511328	     32.31461881	     -6.74282401	      0.58193005	     21.08466626	     21.08466626	      7.64392917	     -7.62698691	      7.24047633	    -10.52481206	      4.87443375	      4.10255001	     20.14653448	    -16.45037947	      3.87522286	     61.97413952	     44.96788309	      0.00000000	      0.00000000	     -2.66077783	     -8.66555114	     -7.84664230	     29.17318946	     46.33968043	      0.00000000	      0.00000000
